<svg id="svg845" version="1.1" viewBox="0 0 413.65 449.27" width="413.65" height="449.27" xmlns="http://www.w3.org/2000/svg">
  <style id="style833" type="text/css">.st0{fill:#FFFFFF;}</style>
  <g id="g843" transform="matrix(.8878 0 0 .8878 -294.82 -408.41)" style="fill:#5b4159">
    <g id="g839" style="fill:#5b4159">
      <path id="path835" class="st0" d="m426.6 844.1c-1.6-2.7-2.5-4.6-3.7-6.2-6.4-8.9-13.9-16.7-23.1-22.7-6.8-4.4-10.6-11.1-11.4-19.1-1.1-10.1 6.3-16.6 16.5-14.5 2.9.6 6 1.9 8.2 3.7 9.5 7.8 18.4 16.2 28.1 23.7 8 6.1 16.5 11.5 25.1 16.7 9.4 5.7 19.4 10.5 28.9 16.1 18.8 11.1 29.8 27.3 33.7 49 3.8 21.2 2.9 42.1-.5 63.1-2.3 14.3-1 12-14.4 12.1-13.6.1-27.3 0-40.9 0-6.2 0-7.4-1-7.9-7.4-.2-2.6-.2-5.2-.2-7.8.4-24.2-10.7-39.8-32.5-50-15.8-7.3-30.7-16.5-45.9-25-6-3.3-10.2-8.5-14-14.3-5.9-9.1-12.2-18.1-19.1-26.4-13-15.8-19.5-33.8-20.5-54-.6-10.8-1-21.7-.9-32.5 0-3.4 1.5-6.9 2.9-10 1.9-4.4 5.7-6.9 10.5-6.9 4.6-.1 8.3 2.6 9.6 6.6 2.5 7.6 6.1 15.7 5.6 23.4-1.2 19.8 6.5 35.4 18.6 49.8 2.9 3.5 5.3 7.5 8 11.2 7.8 10.7 18 17.8 31 20.6 2.4.4 4.8.5 8.3.8z" style="fill:#5b4159"/>
      <path id="path837" class="st0" d="m703.9 844.3c3.6-.6 7.2-.9 10.7-1.9 11-3.2 19.8-9.5 26.7-18.6 5.3-7.1 10.4-14.4 15.6-21.6 7.6-10.3 12.1-21.4 11.3-34.6-.6-9.9 1.1-19.6 5.5-28.6 2.1-4.2 5.2-7.4 10.2-7.3 5.3.1 8.9 3 11 7.8.7 1.5 1.5 3.1 1.6 4.8.6 6.5 1.9 13.2 1.4 19.6-1 12.7-2 25.5-4.8 37.8-1.8 8.1-5.9 16.1-10.5 23.2-7.6 11.9-16.9 22.6-24.4 34.5-5.4 8.7-12.3 15.3-20.9 20.1-13.5 7.5-26.9 15.3-40.9 21.7-22 10.1-32.6 25.7-32.1 49.7.3 15 .2 15.1-14.6 15.1-13.8 0-27.6-.1-41.4 0-3.4 0-5.5-1-6.2-4.6-5.2-28.6-7.1-57.1 2.3-85.4 3.5-10.4 9.3-19.3 18-25.5 12-8.4 24.5-16.3 37.5-23 12.7-6.5 24.1-14.5 34.6-24 6.9-6.2 14.2-12.2 21.4-18.2 1.6-1.3 3.5-2.5 5.5-3.2 5.5-1.9 11.1-1.9 15.6 2.1 4.3 3.8 4.6 9.1 3.4 14.5-1.6 7.2-5.6 12.8-11.7 16.9-10.7 7-18.9 16.3-25.5 27.1.3.6.5 1.1.7 1.6z" style="fill:#5b4159"/>
    </g>
    <path id="path841" class="st0" d="m722.9 597.9c-1-5.5-3.4-10-7.3-13.6-2.2-1.9-4.2-4-6.3-5.9-5-4.6-10.1-9.5-15.3-14.1-25.7-23-50.8-45.5-74.6-66.5-5.1-4.5-10.2-9-15.4-13.5-6.8-5.9-13.8-12.1-20.6-18.1-4.8-4.4-11.8-6.6-19.3-6.1-6 .3-11.5 2.5-15.3 5.9-5.6 5.1-11.4 10.1-17 15.1-2.5 2.2-4.8 4.2-7.3 6.4l-57.8 51.3v-28.8c0-1.4-1.2-2.6-2.6-2.6h-27.2c-1.4 0-2.6 1.2-2.6 2.6v55.9c-1.9 1.6-3.8 3.1-5.7 4.7-3.9 3.3-7.4 6.8-10.9 10.2-1.1 1.1-2.2 2.2-3.3 3.2-5.5 5.4-8.3 13.9-7.5 22.6.9 9 5.5 17 12.8 21.8 3.6 2.4 7.4 3.7 11.4 3.8 2.7.1 5.5.2 8.2.2v124c0 19 15.5 34.5 34.5 34.5h183.3c19 0 34.5-15.4 34.5-34.4v-124.7c2.1-.1 4.2-.2 6.2-.3 13.5-.8 22.2-8.5 24.6-21.7 0-.1 0-.1.1-.2l.5-1.6v-8zm-22 6.7c-.1.2-.1.5-.1.8-.6 3.7-.8 3.7-4 3.9-4.3.2-8.6.3-13.1.4-2 0-4.1.1-6.1.2h-8.2v25.8h-.1v120.9c0 6.7-5.4 12.2-12.2 12.2h-183.3c-6.7 0-12.2-5.4-12.2-12.2v-146.5h-16.5c-4.3-.1-8.6-.2-12.9-.3 0 0-.1 0-.1-.1-2-1.3-2.7-3.4-2.9-5.1-.3-2.6.5-4.5.9-4.8 1.2-1.1 2.3-2.3 3.4-3.4 3.2-3.2 6.3-6.2 9.5-8.9 5.8-4.8 11.8-9.7 17.7-14.3 3.3-2.7 6.7-5.3 9.9-8l51-45.3 17.8-15.7c2.4-2.2 4.8-4.2 7.2-6.4 5.6-5 11.4-10 17.1-15.2.2-.1.9-.3 1.8-.3 1.6-.1 2.7.3 2.9.4 6.9 6.2 14 12.5 20.9 18.4 5.1 4.4 10.2 8.8 15.2 13.3 23.7 21.1 48.8 43.5 74.5 66.5 5 4.5 10 9.1 14.9 13.8 2.2 2 4.3 4 6.5 6 .1.1.4.3.5 1.4 0 .2.1.5.1.8z" style="fill:#5b4159"/>
  </g>
</svg>
