<svg id="svg837" version="1.1" viewBox="0 0 445.5 445.5" width="445.5" height="445.5" xmlns="http://www.w3.org/2000/svg">
  <path id="path835" class="st0" d="m247.1 445.5h-49.3c-30.8 0-55.8-25-55.8-55.8v-86.5h-86.2c-30.8 0-55.8-25-55.8-55.8v-49.3c0-30.8 25-55.8 55.8-55.8h86.2v-86.5c0-30.8 25-55.8 55.8-55.8h49.3c30.8 0 55.8 25 55.8 55.8v86.5h86.8c30.8 0 55.8 25 55.8 55.8v49.3c0 30.8-25 55.8-55.8 55.8h-86.8v86.5c0 30.8-25 55.8-55.8 55.8zm-191.3-271.1c-13.1 0-23.7 10.6-23.7 23.7v49.3c0 13.1 10.6 23.7 23.7 23.7h118.3v118.6c0 13.1 10.6 23.7 23.7 23.7h49.3c13.1 0 23.7-10.6 23.7-23.7v-118.6h118.9c13.1 0 23.7-10.6 23.7-23.7v-49.3c0-13.1-10.6-23.7-23.7-23.7h-118.9v-118.6c0-13.1-10.6-23.7-23.7-23.7h-49.3c-13.1 0-23.7 10.6-23.7 23.7v118.6z" style="fill:#5b4159"/>
</svg>
