<svg id="svg1510" version="1.1" width="430.46" height="381.11" viewBox="0 0 430.46 381.11" xmlns="http://www.w3.org/2000/svg"><path id="path1490" class="st1" d="m150.12 228.84" style="fill:#5b4159;stroke-width:1.3549"/><g id="g1508" transform="matrix(1.3885 0 0 1.3885 -592.17 -837.44)" style="fill:#5b4159"><path id="path1498" d="m617 792.8-44 53.6-91.5-111.6c-7.2-8.8-12.2-18.4-15-28.7-6-22.3-.2-40 17.1-52.8 11.2-8.2 22.2-12.4 32.8-12.4 2.7 0 5.4.3 8 .8 24.3 4.9 39.8 30.7 40 31l8.6 12.3 8.2-11.6.4-.7c.2-.3 15.7-26 40-31 13-2.7 26.8 1.2 40.8 11.6 12.4 9.1 18.8 20.8 19.3 34.9 3.4 4.1 5.6 9.3 5.6 15v25.4h4.6c2.8-5.6 5.1-11.4 6.7-17.4 8.1-30-.6-56.3-24.5-73.8-18.8-13.8-37.8-18.9-56.6-15-20.6 4.2-35.7 18.3-44.5 28.7-8.7-10.3-23.9-24.4-44.5-28.7-18.8-3.9-37.8 1.2-56.6 15-23.9 17.6-32.5 43.8-24.5 73.8 3.5 13 9.8 25.1 18.8 36.1l106.8 130.3 50.1-61.1v-23.7z" style="fill:#5b4159"/><path id="path1500" d="m712.8 728.7h-20.9c-3.3 6.5-7.2 12.8-12.1 18.6l-.9 1.1h33.9c2.1 0 3.8 1.7 3.8 3.8v17c0 2.1-1.7 3.8-3.8 3.8h-45.3v45.2c0 2.1-1.7 3.8-3.8 3.8h-17c-2.1 0-3.8-1.7-3.8-3.8v-25.8l-19.7 24.1v1.7c0 13 10.6 23.6 23.6 23.6h17c13 0 23.6-10.6 23.6-23.6v-25.4h25.5c13 0 23.6-10.6 23.6-23.6v-17c-.2-12.9-10.8-23.5-23.7-23.5z" style="fill:#5b4159"/><path id="path1502" d="m594 769.2v-17c0-2.1 1.7-3.8 3.8-3.8h45v-45.2c0-2.1 1.7-3.8 3.8-3.8h17c2.1 0 3.8 1.7 3.8 3.8v27.5c5.6-7.7 9.7-15.9 12-24.7 1.7-6.4 2.3-12.3 2.1-17.9-4.3-5.2-10.7-8.5-18-8.5h-17c-13 0-23.6 10.6-23.6 23.6v25.4h-25.3c-13 0-23.6 10.6-23.6 23.6v17c0 13 10.6 23.6 23.6 23.6h19.4l16.2-19.7h-35.4c-2-.1-3.8-1.8-3.8-3.9z" style="fill:#5b4159"/><path id="path1504" d="m687.2 703.3c0-5.7-2.2-11-5.6-15 .2 5.6-.4 11.6-2.1 17.9-2.3 8.7-6.4 17-12 24.7v17.6h11.4l.9-1.1c4.8-5.9 8.8-12.1 12.1-18.6h-4.6v-25.5z" style="fill:#5b4159"/><polygon id="polygon1506" points="617 792.8 623.2 792.8 623.2 816.4 642.9 792.4 642.9 773 633.2 773" style="fill:#5b4159"/></g></svg>
