<svg version="1.1" viewBox="0 0 384.98 454.65" width="384.98" height="454.65" xmlns="http://www.w3.org/2000/svg">
  <style type="text/css">.st0{fill:#FFFFFF;}</style>
  <path class="st0" d="m309.37 217.14c-24.942 4.704-44.961 24.833-49.774 49.665-6.3449 32.928 13.127 62.574 41.679 72.419-.2188 10.064-2.8442 37.413-21.77 54.697-16.409 14.878-42.664 19.8-78.545 14.331-5.0321-.76576-49.774-9.0798-51.634-80.624l-1.4221-60.605c16.518-3.5006 35.553-11.049 51.525-26.583 33.584-32.6 38.069-66.512 38.069-95.392v-136.52c0-4.704-3.8288-8.5328-8.5328-8.5328h-51.962c-4.7039 0-8.5328 3.8288-8.5328 8.5328v27.13c0 4.704 3.8289 8.5328 8.5328 8.5328h7.767c4.704 0 8.5328 3.8288 8.5328 8.5328v92.438c0 29.318-6.4543 46.055-24.723 63.777-17.175 16.737-43.539 17.284-51.197 16.956h-.8752c-16.628-.43757-32.6-6.5637-47.477-18.378-23.848-18.925-24.833-59.729-24.833-59.839v-94.954c0-4.704 3.8289-8.5328 8.5328-8.5328h8.9704c4.7039 0 8.5327-3.8288 8.5327-8.5328v-27.13c0-4.704-3.8288-8.5328-8.5327-8.5328h-53.166c-4.7039 0-8.5328 3.8288-8.5328 8.5328v139.37c0 2.5161 1.094 62.136 41.57 94.189 19.035 15.096 39.82 24.176 62.027 27.02l1.4221 59.729c2.2973 89.704 60.276 119.9 89.704 123.18 11.377 1.7503 22.207 2.6255 32.49 2.6255 34.022 0 61.589-9.5173 82.265-28.443 32.49-29.755 35.772-73.076 35.881-88.172 19.472-7.8764 34.35-25.38 38.398-46.383 8.6422-44.524-29.865-83.03-74.388-74.498zm17.175 43.539c6.673 1.6409 12.143 7.1106 13.784 13.784 3.5006 14.221-9.0798 26.802-23.301 23.301-6.6731-1.6409-12.143-7.1106-13.784-13.784-3.5006-14.221 9.0798-26.802 23.301-23.301z" style="fill:#5b4159;stroke-width:1.094"/>
</svg>
