<svg version="1.1" viewBox="0 0 433.44 431.12" xmlns="http://www.w3.org/2000/svg">
  <style type="text/css">.st0{fill:#FFFFFF;}</style>
  <circle class="st0" cx="335.62" cy="50.622" r="50.622" style="fill:#5b4159"/>
  <path class="st0" d="m432.74 230.18c-2.4474-8.3726-10.176-12.495-10.562-12.623l-43.409-25.504-31.687-67.239c-3.3491-7.0846-10.176-11.979-17.776-12.881-2.705-.25762-5.41-.25762-8.115-.12881-8.8879.64405-28.467 1.4169-28.467 1.4169l-6.3117.25762-26.921-9.9184c-3.7355-1.4169-7.7286-1.1593-11.335.51524s-6.1829 4.766-7.471 8.5015l-34.135 102.92c-.38643 1.2881-2.5762 7.8574.64405 13.911 1.4169 2.5762 4.1219 5.9253 9.5319 7.3422 6.0541 1.5457 30.786 7.5998 41.734 10.176.64405 4.1219 2.1898 9.1455 5.1524 14.684.25762.51524.77286 1.2881 1.2881 2.3186l-15.457 61.571-48.69 65.822c-4.5084 7.5998-9.2743 23.057 1.9322 32.202 6.3117 5.0236 12.366 7.5998 18.42 7.5998s12.108-2.5762 18.162-7.5998c10.562-8.5015 45.728-58.093 52.683-67.883l11.851-32.074c24.087 36.196 50.236 74.967 52.168 77.93l11.206 15.972.77286.90167c4.5084 4.766 13.396 11.078 23.186 11.078 4.8948 0 9.9184-1.4169 14.556-5.6676 17.261-14.04 11.722-30.27 9.9184-35.552-1.9322-5.5388-53.714-88.492-84.499-137.44.25762-.51524.38643-1.0305.90167-1.9322 2.4474-4.3795 5.6676-14.813 8.6303-25.633l2.8338 3.6067 56.419 30.013 1.8033.64405c6.5693 1.6745 20.867 1.4169 28.596-11.593 3.8643-6.5693 3.4779-12.108 2.4474-15.715z" style="fill:#5b4159"/>
  <circle class="st2" cx="98.095" cy="163.97" r="35.552" style="fill:#5b4159"/>
  <path class="st2" d="m166.1 290.46c-1.6745-5.9253-7.0846-8.7591-7.3422-8.8879l-30.399-17.905-22.284-47.273c-2.4474-4.8948-7.2134-8.3726-12.495-9.0167-1.9322-.25762-3.7355-.25762-5.6676-.12881-6.1829.51524-19.966 1.0305-19.966 1.0305l-3.0914.12881-19.966-7.3422c-2.705-.90167-5.41-.77286-7.9862.38643s-4.3795 3.3491-5.2812 5.9253l-23.959 72.262c-.38643.90167-1.8033 5.5388.38643 9.7896 1.0305 1.8033 2.8338 4.1219 6.6981 5.1524 4.1219 1.1593 21.511 5.41 29.24 7.2134.51524 2.9626 1.5457 6.4405 3.6067 10.434.25762.38643.51524 1.0305 1.0305 1.6745l-10.82 42.894-34.263 46.243c-3.2203 5.41-6.5693 16.23 1.2881 22.671 4.3795 3.6067 8.6303 5.41 12.881 5.41s8.5015-1.8033 13.01-5.5388c7.3422-6.0541 32.074-40.704 36.968-47.66l8.2438-22.155c16.874 25.376 35.294 52.554 36.582 54.615l7.8574 11.206.51524.64405c3.0914 3.3491 9.4031 7.7286 16.23 7.7286 3.3491 0 6.8269-1.0305 10.176-3.8643 12.108-9.9184 8.2438-21.254 6.9557-24.989-1.2881-3.8643-37.613-62.086-59.253-96.479.12881-.25762.38643-.64405.64405-1.2881 1.6745-3.0914 3.9931-10.434 6.0541-18.033l1.9322 2.5762 39.416 21.254 1.2881.51524c4.6372 1.1593 14.684 1.0305 20.094-8.115 2.705-4.6372 2.4474-8.6303 1.6745-11.078z" style="fill:#5b4159"/>
</svg>
