<svg id="svg8" version="1.1" viewBox="0 0 127.78 51.737" xmlns="http://www.w3.org/2000/svg"><defs id="defs2"><linearGradient id="SVGID_1_" x1="280" x2="872.2" y1="844.98" y2="844.98" gradientTransform="matrix(1.0262,0,0,1,-177.43,-263.66)" gradientUnits="userSpaceOnUse"><stop id="stop943" style="stop-color:#8A57EA" offset="0"/><stop id="stop945" style="stop-color:#8A00EA" offset="1"/></linearGradient><linearGradient id="SVGID_2_" x1="836.06" x2="982.14" y1="691.27" y2="691.27" gradientTransform="translate(-170.1,-263.66)" gradientUnits="userSpaceOnUse"><stop id="stop948" style="stop-color:#8A00EA" offset="0"/><stop id="stop950" style="stop-color:#8A57EA" offset="1"/></linearGradient><linearGradient id="SVGID_3_" x1="170.06" x2="982.41" y1="512.76" y2="512.76" gradientTransform="translate(-170.1,-263.66)" gradientUnits="userSpaceOnUse"><stop id="stop953" style="stop-color:#8A57EA" offset="0"/><stop id="stop955" style="stop-color:#8A00EA" offset="1"/></linearGradient></defs><g id="g1542" transform="matrix(.019649 0 0 .019649 6.0833 5.0463)"><path id="path958" class="st0" d="m408.64 759.54c-4.7206 0-9.9543-.5-15.701-1.5-18.575-3.6-77.582-35.4-110.73-54l-120.38-64.1c-5.2337-3.3-51.414-33.3-50.695-78.4.51311-32.3-.82097-116.6-.82097-117.6l-.51311-41 274.82 146.4c1.0262.5 29.247 17.3 60.034-1 45.461-27 227.2-120.4 235-124.4l35.507-18.1 2.3603 150.9c0 2.3.30786 55.5-56.134 85.5-42.28 22.6-208.42 101.8-228.74 111.5-5.1311 3-12.725 5.8-24.013 5.8zm-221.15-160.3 118.53 63.1c38.688 21.6 86.408 46.1 96.67 48.6 2.8734.5 4.9258.8 6.0547.8l.30787-.3c1.8472-.8 185.44-88.3 228.54-111.2 29.76-16 30.581-42 30.581-43.3l-1.0262-72.3c-56.647 29.3-164.81 85.5-196.93 104.6-53.774 32.1-103.13 5.9-111.55 1l-198.88-105.8c.30787 26.7.51311 59.6.30787 77.9-.30787 14.3 18.267 30.8 27.4 36.9z" style="fill:url(#SVGID_1_);stroke-width:1.013"/><path id="path960" class="st1" d="m750.5 226.54h-22.9c-18.8 0-34.4 14-34.4 31v377.2c0 17.1 15.3 31 34.4 31h22.9c18.8 0 34.4-14 34.4-31v-377.4c-.1-7.1-17.1-28.3-34.4-30.8z"/><path id="path962" class="st2" d="m750.5 674.54h-22.9c-34.1 0-61.6-26.2-61.6-58.3v-377.3c0-32.1 27.7-58.3 61.6-58.3l27.2.3c27.2 4.3 57.3 34.6 57.3 58v377.2c-.1 32.2-27.5 58.4-61.6 58.4zm-23-439.2c-4.3 0-6.9 2.5-6.9 3.6v377.2c0 1 2.5 3.6 6.9 3.6h22.9c4.3 0 6.9-2.5 6.9-3.6v-371.9c-2.5-3.3-7.1-7.4-10.2-8.7z" style="fill:url(#SVGID_2_)"/><path id="path964" class="st1" d="m762.7 290.84c30.3-18.6 29.3-62.9-1.8-80.2-101.8-56.5-210.2-119.1-307.7-172.3-27.7-15-55.2-15-83 .3-105.3 57.7-210.7 115.3-316.3 172.5-15.5 8.4-26.7 19.3-26.7 37.7s10.9 29.5 26.5 37.9c105.1 57 210 114 314.8 171.8 29.8 16.3 58 16.3 87.5 0 51.7-28.8 103.8-56.8 155.7-85.3 49.2-26.7 98.3-53.7 151-82.4z"/><path id="path966" class="st3" d="m412.2 498.24c-19.1 0-38.2-5.1-57-15.8-107.9-59.5-217.8-119.1-314.5-171.5-27.2-14.8-41-35.6-40.7-62.1 0-26.2 14-47.1 41-61.6 101.8-55.2 205.1-111.7 316.3-172.5 35.9-19.6 73.5-19.6 109.2-.3 58 31.8 121.1 67.2 182 101.5 41.7 23.4 84.7 47.8 126 70.7 23.2 13 37.4 36.4 37.9 62.9s-12.5 50.6-35.1 64.6l-1.3.8-193.8 105.7c-37.2 20.1-75.3 41-112.7 61.8-19.1 10.7-38.2 15.8-57.3 15.8zm-.2-443.6c-9.4 0-18.8 2.8-28.8 8.1-111.2 60.9-214.5 117.4-316.3 172.6-12.2 6.6-12.2 10.7-12.5 13.7 0 3.1 0 7.1 12.2 13.7 97 52.7 206.9 112.2 314.8 171.8 21.4 12 39.7 12 61.1 0 37.7-20.9 76.1-42 113.2-62.1l192.9-105.1c7.9-5.1 8.7-13.2 8.7-16.3 0-3.3-1.3-11.5-9.7-16.3-41.5-22.9-84.5-47.3-126.2-71-60.8-34.4-123.4-69.7-181.2-101.3-9.9-5-19.1-7.8-28.2-7.8z" style="fill:url(#SVGID_3_)"/></g><rect id="rect1601" x=".7763" y=".7763" width="126.23" height="23.211" rx="10.884" ry="11.717" style="fill:none;paint-order:markers fill stroke;stroke-linecap:square;stroke-linejoin:round;stroke-width:1.5526;stroke:#8755e5"/><text id="text1605" x="25.98844" y="15.80655" style="fill-opacity:.2;fill:#333333;font-family:sans-serif;font-size:10.583px;line-height:1.25;stroke-width:.26458" xml:space="preserve"><tspan id="tspan1603" x="25.98844" y="15.80655" style="fill-opacity:.2;fill:#333333;stroke-width:.26458">Ofsted Rating</tspan></text><rect id="rect1730" x="101.79" y="2.5763" width="19.109" height="19.441" rx="2.0645" ry="1.9179" style="fill:#8755e5;paint-order:markers fill stroke"/><g id="g1710" transform="matrix(.62735 0 0 .63726 77.174 -24.26)" style="fill:#ffffff"><g id="g1665" transform="translate(-4.8639)" style="fill:#ffffff"><rect id="rect1609-8" x="58.105" y="56.945" width="2" height="12.354" style="fill:#ffffff;paint-order:markers fill stroke"/><rect id="rect1609-2-8" x="58.105" y="46.122" width="2" height="7.2149" style="fill:#ffffff;paint-order:markers fill stroke"/><rect id="rect1607-8" x="55.299" y="52.829" width="7.6128" height="2" rx="0" ry="0" style="fill:#ffffff;paint-order:markers fill stroke"/></g><g id="g1691" style="fill:#ffffff"><rect id="rect1607" x="42.572" y="59.545" width="7.6128" height="2" rx="0" ry="0" style="fill:#ffffff;paint-order:markers fill stroke"/><rect id="rect1609" x="45.378" y="60.277" width="2" height="8.8064" style="fill:#ffffff;paint-order:markers fill stroke"/><rect id="rect1609-2" x="45.378" y="46.122" width="2" height="11.338" style="fill:#ffffff;paint-order:markers fill stroke"/></g><g id="g1696" style="fill:#ffffff"><rect id="rect1607-9" x="58.297" y="59.636" width="7.6128" height="2" rx="0" ry="0" style="fill:#ffffff;paint-order:markers fill stroke"/><rect id="rect1609-80" x="61.104" y="60.368" width="2" height="8.8064" style="fill:#ffffff;paint-order:markers fill stroke"/><rect id="rect1609-2-0" x="61.104" y="46.213" width="2" height="11.338" style="fill:#ffffff;paint-order:markers fill stroke"/></g></g><style id="style833" type="text/css">.st0{fill:url(#SVGID_1_);}
	.st1{fill:#FFFFFF;}
	.st2{fill:url(#SVGID_2_);}
	.st3{fill:url(#SVGID_3_);}</style><path id="path833" d="m77.65 24.427h-.06334c-.8649-.0048-1.7005.31299-2.3439.8912-.52079-1.4413-1.8443-2.4773-3.3944-2.4773-.9501.0067-1.8576.39671-2.5158 1.0823-.60525-1.2253-1.8194-2.0565-3.2155-2.0565h-.06741c-.74822-.01148-1.4783.23188-2.0702.6897v-8.7353c0-2.111-1.6435-3.8282-3.6426-3.8282-1.9969 0-3.6318 1.7161-3.633 3.8256l-.01667 17.331-.98084-1.1912c-.86009-1.0708-2.1261-1.7357-3.4959-1.8361-1.3416-.09186-2.6614.37485-3.6467 1.2905l-.85342.70711c-.27521.22817-.35374.6171-.18891.93417l8.2975 15.949c1.5172 2.9147 4.4038 4.7331 7.5333 4.7331h9.3509v-.0081c4.7412 0 8.5853-4.1141 8.5901-9.1657.0018-2.2602-.0067-3.9448-.0052-5.3102.0048-3.653.0011-5.0009-.0081-9.0253-.0048-2.1061-1.6365-3.8004-3.63-3.8004zm2.1098 12.821c-.0015 1.3657-.0037 3.057-.0059 5.3172-.0041 4.2163-3.187 7.6545-7.0952 7.6545h-9.3061c-2.5617 0-4.9327-1.5057-6.1873-3.9163l-8.0152-15.402.3956-.33003c.01-.0081.01963-.01778.02926-.0263.68044-.64044 1.5961-.96936 2.5284-.90824.95306.07297 1.8324.53894 2.4284 1.2861l2.3221 2.8255c.20298.2478.54005.34078.84157.23299.30151-.10779.50301-.39374.50301-.71378l.01371-19.448c.000759-1.2735.9638-2.3095 2.1254-2.3095 1.1616 0 2.1247 1.0371 2.1247 2.3113v11.726c0 .04074-.0018.08186-.0018.12334 0 .01778.0018.03593.0018.05334v5.0135c0 .41893.33966.75859.75859.75859s.7586-.33966.7586-.75859v-5.1646c0-1.2286.93861-2.1887 2.0702-2.1887h.06741c1.1623 0 2.1295 1.0131 2.1295 2.2873v4.5875c0 .41893.33966.75859.75859.75859s.75859-.33966.75859-.75859v-3.5992c0-1.2746.92083-2.3113 2.0895-2.3113 1.162 0 2.0828 1.0364 2.0828 2.3113v3.3955c0 .41893.33966.7586.75859.7586.41893 0 .7586-.33966.7586-.7586v-1.8387c0-1.2746.97121-2.2721 2.1335-2.2721h.06334c1.1594 0 2.1043 1.0145 2.1072 2.285.0093 4.0215.0074 5.3679.0026 9.0183z" style="fill:#000000;stroke-width:.094824"/><path id="path835" d="m54.293 14.149c.41893 0 .7586-.33966.7586-.75859.01222-2.8947 2.3625-5.2346 5.2568-5.2346 2.8947 0 5.2446 2.3399 5.2568 5.2346 0 .41893.33966.75859.7586.75859.41893 0 .75859-.33966.75859-.75859-.01407-3.7315-3.0425-6.7488-6.774-6.7488-3.7311 0-6.7599 3.0173-6.774 6.7488 0 .41893.33966.75859.75859.75859z" style="fill:#000000;stroke-width:.094824"/><path id="path845" d="m62.371 50.112c-.55288-.0801-1.6468-.45162-2.1534-.73133-.62979-.34772-1.1838-.77901-1.7467-1.3597-.56523-.5831-.87782-1.0182-1.3122-1.8262-1.3669-2.543-7.9521-15.298-7.9147-15.33.81083-.69823 1.1991-.92578 1.8823-1.1031.98804-.25648 2.1363.03957 2.9335.75633.18101.16275.90213.99228 1.6025 1.8434.70035.85113 1.3259 1.5756 1.3901 1.61.34356.18387.88927.01472 1.0914-.33828.06153-.10748.0857-2.3553.11044-10.271l.03167-10.134.1685-.35944c.49947-1.0655 1.5657-1.5615 2.5545-1.1883.51047.19267 1.0306.70882 1.2411 1.2315l.15281.37955.03167 8.8671c.02515 7.0407.04836 8.8963.11272 9.009.24614.4308 1.0407.44431 1.3273.02256.10169-.14965.11457-.43461.1434-3.1729l.03167-3.0085.16771-.35772c.77682-1.6569 2.992-1.6208 3.7807.06161l.1685.35944.03167 2.7264c.03543 3.0501.02451 2.9797.49277 3.1754.33308.13917.63581.07129.8848-.19838l.20584-.22294v-2.0246c0-2.144.0329-2.4784.29506-2.9989.33842-.67187.91829-1.0608 1.6532-1.1088.71593-.04675 1.3141.2441 1.7223.83746.39996.58132.40666.62596.44393 2.9608.0325 2.0359.04008 2.1413.16637 2.3118.18853.25454.56371.36557.87892.26009.47294-.15826.50458-.26231.54128-1.78.03148-1.3018.03767-1.3528.20906-1.7216.21344-.45925.59785-.87044 1.0252-1.0967.27393-.145.39364-.16779.88671-.16884.46937-.000997.62254.02465.86738.14525.41908.20642.798.60818 1.0267 1.0886l.196.41169v7.9487c0 7.5127-.0065 7.9781-.11772 8.4845-.65552 2.9837-2.611 5.1348-5.3626 5.8991l-.5367.14908-5.4469.0107c-3.1364.0062-5.6216-.0146-5.8586-.04894z" style="fill:#ffffff;paint-order:markers fill stroke;stroke-linecap:square;stroke-linejoin:round;stroke-width:.26475;stroke:#ffffff"/></svg>
