<svg id="svg8" version="1.1" viewBox="0 0 203.04 49.781" xmlns="http://www.w3.org/2000/svg" xmlns:xlink="http://www.w3.org/1999/xlink"><defs id="defs2"><linearGradient id="SVGID_1_" x1="280" x2="872.2" y1="844.98" y2="844.98" gradientTransform="matrix(1.0262,0,0,1,-177.43,-263.66)" gradientUnits="userSpaceOnUse"><stop id="stop943" style="stop-color:#8A57EA" offset="0"/><stop id="stop945" style="stop-color:#8A00EA" offset="1"/></linearGradient><linearGradient id="SVGID_2_" x1="836.06" x2="982.14" y1="691.27" y2="691.27" gradientTransform="translate(-170.1,-263.66)" gradientUnits="userSpaceOnUse"><stop id="stop948" style="stop-color:#8A00EA" offset="0"/><stop id="stop950" style="stop-color:#8A57EA" offset="1"/></linearGradient><linearGradient id="SVGID_3_" x1="170.06" x2="982.41" y1="512.76" y2="512.76" gradientTransform="translate(-170.1,-263.66)" gradientUnits="userSpaceOnUse"><stop id="stop953" style="stop-color:#8A57EA" offset="0"/><stop id="stop955" style="stop-color:#8A00EA" offset="1"/></linearGradient><linearGradient id="SVGID_1_-2" x1="236.34" x2="922.66" y1="730.5" y2="730.5" gradientTransform="translate(-236.32,-371.69)" gradientUnits="userSpaceOnUse"><stop id="stop3063" style="stop-color:#8A57EA" offset="0"/><stop id="stop3065" style="stop-color:#8A00EA" offset="1"/></linearGradient><linearGradient id="SVGID_2_-2" x1="396.25" x2="765.2" y1="829.95" y2="829.95" gradientTransform="translate(-236.32,-371.69)" gradientUnits="userSpaceOnUse"><stop id="stop3070" style="stop-color:#8A57EA" offset="0"/><stop id="stop3072" style="stop-color:#8A00EA" offset="1"/></linearGradient></defs><g id="g1542" transform="matrix(.019649 0 0 .019649 6.0833 5.2946)"><path id="path958" class="st0" d="m408.64 759.54c-4.7206 0-9.9543-.5-15.701-1.5-18.575-3.6-77.582-35.4-110.73-54l-120.38-64.1c-5.2337-3.3-51.414-33.3-50.695-78.4.51311-32.3-.82097-116.6-.82097-117.6l-.51311-41 274.82 146.4c1.0262.5 29.247 17.3 60.034-1 45.461-27 227.2-120.4 235-124.4l35.507-18.1 2.3603 150.9c0 2.3.30786 55.5-56.134 85.5-42.28 22.6-208.42 101.8-228.74 111.5-5.1311 3-12.725 5.8-24.013 5.8zm-221.15-160.3 118.53 63.1c38.688 21.6 86.408 46.1 96.67 48.6 2.8734.5 4.9258.8 6.0547.8l.30787-.3c1.8472-.8 185.44-88.3 228.54-111.2 29.76-16 30.581-42 30.581-43.3l-1.0262-72.3c-56.647 29.3-164.81 85.5-196.93 104.6-53.774 32.1-103.13 5.9-111.55 1l-198.88-105.8c.30787 26.7.51311 59.6.30787 77.9-.30787 14.3 18.267 30.8 27.4 36.9z" style="fill:url(#SVGID_1_);stroke-width:1.013"/><path id="path960" class="st1" d="m750.5 226.54h-22.9c-18.8 0-34.4 14-34.4 31v377.2c0 17.1 15.3 31 34.4 31h22.9c18.8 0 34.4-14 34.4-31v-377.4c-.1-7.1-17.1-28.3-34.4-30.8z"/><path id="path962" class="st2" d="m750.5 674.54h-22.9c-34.1 0-61.6-26.2-61.6-58.3v-377.3c0-32.1 27.7-58.3 61.6-58.3l27.2.3c27.2 4.3 57.3 34.6 57.3 58v377.2c-.1 32.2-27.5 58.4-61.6 58.4zm-23-439.2c-4.3 0-6.9 2.5-6.9 3.6v377.2c0 1 2.5 3.6 6.9 3.6h22.9c4.3 0 6.9-2.5 6.9-3.6v-371.9c-2.5-3.3-7.1-7.4-10.2-8.7z" style="fill:url(#SVGID_2_)"/><path id="path964" class="st1" d="m762.7 290.84c30.3-18.6 29.3-62.9-1.8-80.2-101.8-56.5-210.2-119.1-307.7-172.3-27.7-15-55.2-15-83 .3-105.3 57.7-210.7 115.3-316.3 172.5-15.5 8.4-26.7 19.3-26.7 37.7s10.9 29.5 26.5 37.9c105.1 57 210 114 314.8 171.8 29.8 16.3 58 16.3 87.5 0 51.7-28.8 103.8-56.8 155.7-85.3 49.2-26.7 98.3-53.7 151-82.4z"/><path id="path966" class="st3" d="m412.2 498.24c-19.1 0-38.2-5.1-57-15.8-107.9-59.5-217.8-119.1-314.5-171.5-27.2-14.8-41-35.6-40.7-62.1 0-26.2 14-47.1 41-61.6 101.8-55.2 205.1-111.7 316.3-172.5 35.9-19.6 73.5-19.6 109.2-.3 58 31.8 121.1 67.2 182 101.5 41.7 23.4 84.7 47.8 126 70.7 23.2 13 37.4 36.4 37.9 62.9s-12.5 50.6-35.1 64.6l-1.3.8-193.8 105.7c-37.2 20.1-75.3 41-112.7 61.8-19.1 10.7-38.2 15.8-57.3 15.8zm-.2-443.6c-9.4 0-18.8 2.8-28.8 8.1-111.2 60.9-214.5 117.4-316.3 172.6-12.2 6.6-12.2 10.7-12.5 13.7 0 3.1 0 7.1 12.2 13.7 97 52.7 206.9 112.2 314.8 171.8 21.4 12 39.7 12 61.1 0 37.7-20.9 76.1-42 113.2-62.1l192.9-105.1c7.9-5.1 8.7-13.2 8.7-16.3 0-3.3-1.3-11.5-9.7-16.3-41.5-22.9-84.5-47.3-126.2-71-60.8-34.4-123.4-69.7-181.2-101.3-9.9-5-19.1-7.8-28.2-7.8z" style="fill:url(#SVGID_3_)"/></g><rect id="rect1601" x=".7763" y="1.0246" width="126.23" height="23.211" rx="10.884" ry="11.717" style="fill:none;paint-order:markers fill stroke;stroke-linecap:square;stroke-linejoin:round;stroke-width:1.5526;stroke:#8755e5"/><text id="text1605" x="25.98844" y="16.054804" style="fill-opacity:.15385;fill:#000000;font-family:sans-serif;font-size:10.583px;line-height:1.25;mix-blend-mode:normal;stroke-width:.26458" xml:space="preserve"><tspan id="tspan1603" x="25.98844" y="16.054804" style="fill-opacity:.15385;fill:#000000;stroke-width:.26458">Ofsted Rating</tspan></text><rect id="rect1730" x="101.79" y="2.8246" width="19.109" height="19.441" rx="2.0645" ry="1.9179" style="fill:#8755e5;paint-order:markers fill stroke"/><g id="g1710" transform="matrix(.62735 0 0 .63726 77.174 -24.011)" style="fill:#ffffff"><g id="g1665" transform="translate(-4.8639)" style="fill:#ffffff"><rect id="rect1609-8" x="58.105" y="56.945" width="2" height="12.354" style="fill:#ffffff;paint-order:markers fill stroke"/><rect id="rect1609-2-8" x="58.105" y="46.122" width="2" height="7.2149" style="fill:#ffffff;paint-order:markers fill stroke"/><rect id="rect1607-8" x="55.299" y="52.829" width="7.6128" height="2" rx="0" ry="0" style="fill:#ffffff;paint-order:markers fill stroke"/></g><g id="g1691" style="fill:#ffffff"><rect id="rect1607" x="42.572" y="59.545" width="7.6128" height="2" rx="0" ry="0" style="fill:#ffffff;paint-order:markers fill stroke"/><rect id="rect1609" x="45.378" y="60.277" width="2" height="8.8064" style="fill:#ffffff;paint-order:markers fill stroke"/><rect id="rect1609-2" x="45.378" y="46.122" width="2" height="11.338" style="fill:#ffffff;paint-order:markers fill stroke"/></g><g id="g1696" style="fill:#ffffff"><rect id="rect1607-9" x="58.297" y="59.636" width="7.6128" height="2" rx="0" ry="0" style="fill:#ffffff;paint-order:markers fill stroke"/><rect id="rect1609-80" x="61.104" y="60.368" width="2" height="8.8064" style="fill:#ffffff;paint-order:markers fill stroke"/><rect id="rect1609-2-0" x="61.104" y="46.213" width="2" height="11.338" style="fill:#ffffff;paint-order:markers fill stroke"/></g></g><style id="style833" type="text/css">.st0{fill:url(#SVGID_1_);}
	.st1{fill:#FFFFFF;}
	.st2{fill:url(#SVGID_2_);}
	.st3{fill:url(#SVGID_3_);}</style><rect id="rect1601-8" x="135.69" y=".83504" width="66.509" height="23.59" rx="10.884" ry="11.717" style="fill:none;paint-order:markers fill stroke;stroke-linecap:square;stroke-linejoin:round;stroke-width:1.6701;stroke:#8755e5"/><g id="g3648" transform="matrix(.02262 0 0 .02262 141.5 4.7492)"><path id="path3068" class="st0" d="m685.68 298.91c-2.1-11.9-7.5-21.7-15.9-29.4-4.7-4.2-9.1-8.6-13.8-12.8-10.7-10-21.9-20.5-33.1-30.6-55.8-50-110.2-98.7-161.8-144.3-11-9.8-22.2-19.6-33.4-29.2-14.7-12.8-29.9-26.1-44.6-39.2-10.5-9.6-25.7-14.2-41.8-13.3-13.1.7-25 5.4-33.1 12.8-12.1 11-24.7 21.9-36.9 32.7-5.4 4.7-10.5 9.1-15.9 13.8l-125.3 111.3v-62.5c0-3-2.6-5.6-5.6-5.6h-59.1c-3 0-5.6 2.6-5.6 5.6v121.1c-4.1 3.4-8.3 6.8-12.4 10.3-8.4 7.2-16.1 14.7-23.6 22.2-2.3 2.3-4.7 4.7-7.2 7-11.9 11.7-18 30.1-16.3 49 1.9 19.6 11.9 36.9 27.8 47.4 7.7 5.1 16.1 7.9 24.7 8.2 5.9.2 11.8.4 17.7.5v268.8c0 41.3 33.6 74.9 74.9 74.9h397.5c41.3 0 74.9-33.4 74.9-74.7v-270.5c4.5-.2 9-.4 13.5-.7 29.2-1.6 48.1-18.4 53.5-47.2 0-.2 0-.2.2-.5l1.2-3.5v-17.2zm-47.7 14.4c-.2.5-.2 1.2-.2 1.6-1.4 7.9-1.6 7.9-8.6 8.4-9.3.5-18.7.7-28.5.9-4.4 0-8.9.2-13.3.5h-17.7v56h-.2v262.1c0 14.5-11.7 26.4-26.4 26.4h-397.6c-14.5 0-26.4-11.7-26.4-26.4v-317.6h-35.7c-9.3-.2-18.7-.5-28-.7 0 0-.2 0-.2-.2-4.4-2.8-5.8-7.5-6.3-11-.7-5.6 1.2-9.8 1.9-10.5 2.6-2.3 4.9-4.9 7.5-7.5 7-7 13.8-13.5 20.5-19.4 12.6-10.5 25.7-21 38.3-31 7.2-5.8 14.5-11.4 21.5-17.3l110.6-98.3 38.5-34c5.1-4.7 10.5-9.1 15.6-13.8 12.1-10.7 24.7-21.7 37.1-32.9.5-.2 1.9-.7 4-.7 3.5-.2 5.8.7 6.3.9 14.9 13.5 30.3 27.1 45.3 39.9 11 9.6 22.2 19.1 32.9 28.9 51.4 45.8 105.7 94.3 161.5 144.3 10.7 9.8 21.7 19.8 32.2 29.9 4.7 4.4 9.3 8.6 14 13.1.2.2.9.7 1.2 3 0 .5.2 1.2.2 1.6z" style="fill:url(#SVGID_1_-2)"/><path id="path3075" class="st1" d="m528.08 388.01-38.8-88.7c-1.6-4-5.8-6.5-10.3-5.8l-96.6 13.3c-5.4.7-9.1 5.6-8.4 11l2.1 15.4c.7 5.4 5.6 9.1 11 8.4l58.3-8.1-40.3 80.3c-2.6 5.4-9.1 7-14 4l-37.4-23.9c-4.9-3-11.4-1.2-14 4l-48.8 100.4c-2.8 5.4-9.6 7.2-14.5 3.7l-41.6-29.2c-4.9-3.5-11.9-1.6-14.5 3.7l-59.5 126.1c-2.3 4.9-.2 10.7 4.7 13.1l14 6.5c4.9 2.3 10.7.2 12.8-4.7l41.8-88.5c2.6-5.4 9.6-7.2 14.5-3.7l41.6 28.9c4.9 3.5 11.9 1.6 14.5-3.7l49.7-102c2.6-5.1 9.1-7 14-4l36.9 23.6c4.9 3 11.4 1.2 14-4l55.3-110.4 21 48.3c2.1 4.9 7.9 7.2 13.1 5.1l14.2-6.3c5.2-2 7.3-7.9 5.2-12.8z" style="fill:url(#SVGID_2_-2)"/></g><path id="path2170" d="m94.601 21.664h-.06554c-.90816.0032-1.781.35253-2.4407.97622-.51494-1.5045-1.8808-2.5822-3.4854-2.5822-.99386.01296-1.9384.43464-2.6107 1.1663-.60748-1.2819-1.8621-2.1415-3.3082-2.1415h-.06986c-.83218 0-1.6424.24775-2.1955.74036v-9.1151c0-2.1548-1.6708-3.9078-3.7101-3.9078-2.0371 0-3.7014 1.7515-3.7029 3.9049l-.01584 18.027-1.0936-1.3295c-.88007-1.0958-2.1761-1.7764-3.5775-1.8793-1.3734-.09398-2.7245.38422-3.7331 1.3212l-.88115.73099c-.26755.22182-.34389.60028-.18365.90816l8.5692 16.452c1.5589 2.9949 4.5242 4.8444 7.7388 4.8444h9.6113c4.8739 0 8.8432-4.2128 8.8483-9.405.0022-2.3197.0047-4.0453.0061-5.4508.005-3.7842.0068-5.1991-.0029-9.3646-.005-2.149-1.6633-3.8959-3.6971-3.8959zm2.225 13.264c-.0014 1.4055-.004 3.126-.0061 5.4457-.0043 4.3795-3.3118 7.9315-7.3733 7.9315h-9.6113c-2.6629 0-5.127-1.5452-6.4309-4.05l-8.2944-15.93.43716-.35938c.0094-.0079.01909-.01476.02809-.02341.71191-.66978 1.6705-1.0137 2.646-.94849.99638.07634 1.9168.56355 2.5401 1.345l2.3979 2.9193c.19769.24054.52502.33093.81814.22614.29312-.10479.48901-.38242.48937-.6939l.01404-20.084c.000737-1.3403 1.0101-2.431 2.2351-2.431 1.2247 0 2.2344 1.0911 2.2344 2.4324v12.111c0 .04177-.0018.08354-.0018.12567 0 .01836.0018.03565.0018.05329v5.1793c0 .40727.33021.73748.73748.73748s.73748-.33021.73748-.73748v-5.3334c0-1.2942 1.0014-2.2866 2.1955-2.2866h.06986c1.225 0 2.2517 1.0468 2.2517 2.3885v4.7374c0 .40727.33021.73748.73748.73748.40727 0 .73748-.33021.73748-.73748v-3.7173c0-1.3414.98378-2.4328 2.216-2.4328 1.2254 0 2.2088 1.0914 2.2088 2.4328v3.507c0 .40727.33021.73748.73748.73748.40727 0 .73748-.33021.73748-.73748v-1.8988c0-1.3417.99314-2.4357 2.2185-2.4357h.06554c1.2222 0 2.2193 1.0896 2.2222 2.427.0097 4.1631.0079 5.5797.0029 9.3621z" style="fill:#000000;stroke-width:.092184"/><path id="path2172" d="m83.007 14.105h9.558l-1.7137 1.7137c-.19085.18545-.26719.45912-.19949.71623.0677.25747.26863.4584.5261.5261.25711.06734.53078-.009.71623-.19985l2.9618-2.9614c.28808-.28808.28808-.75512 0-1.0428l-2.9618-2.9614c-.28844-.2852-.75296-.28376-1.0396.00288-.287.287-.28844.75152-.0032 1.04l1.6917 1.6917h-9.536c-.40727 0-.73748.33021-.73748.73748s.33021.73748.73748.73748z" style="fill:#000000;stroke-width:.092184"/><path id="path2174" d="m60.812 14.105h9.473c.40727 0 .73748-.33021.73748-.73748s-.33021-.73748-.73748-.73748h-9.4511l1.6917-1.6917c.2852-.28844.28376-.75296-.0032-1.04-.28664-.28664-.75116-.28808-1.0396-.00288l-2.9618 2.9614c-.28772.28808-.28772.75512 0 1.0428l2.9618 2.9614c.18581.18833.4584.26251.71407.19445.25567-.0677.45516-.26755.52322-.52322.06806-.25567-.0061-.5279-.19445-.71407z" style="fill:#000000;stroke-width:.092184"/><path id="path2745" d="m79.128 48.234c-2.2029-.23285-4.282-1.6099-5.4679-3.6217-.40004-.67861-8.4301-16.117-8.4408-16.228-.0097-.10087.60115-.63849.98194-.86423.98482-.58383 2.2227-.64574 3.2446-.16228.66093.31267.97885.6254 2.3844 2.3456.92128 1.1275 1.4262 1.6969 1.565 1.7648.29417.14405.64185.08391.87758-.1518l.18699-.18698.03023-10.442c.02749-9.4959.03925-10.468.12992-10.728.47824-1.3746 1.8098-2.0037 3.0114-1.4229.39769.19226.82487.64888 1.0483 1.1206l.19302.40748.03022 9.1884c.02958 8.991.03276 9.1921.14837 9.3629.12324.18202.42066.33934.64152.33934.20181 0 .52224-.17601.64226-.3528.10094-.14867.11165-.39993.13955-3.2742l.03023-3.1132.16968-.34558c.2135-.43484.59981-.83549 1.0178-1.0556.29556-.15565.37904-.1705.95848-.1705.6082 0 .65069.0087 1.0168.20717.44337.24039.78648.60445 1.0226 1.085l.16702.33997.03023 2.8217c.02929 2.7341.03411 2.827.15542 2.9923.36669.49955 1.068.463 1.3204-.0688.08187-.17253.09588-.51134.09588-2.3184 0-1.9269.01053-2.1502.11762-2.4942.29833-.95853 1.0214-1.5606 1.9377-1.6134.58121-.03349 1.0162.12031 1.4543.51416.33446.30071.51153.55121.6947.9828.10438.24594.11847.48496.14689 2.4925l.03144 2.2205.18911.189c.35405.35384.98681.28822 1.2002-.12447.07154-.13834.0918-.40725.09215-1.2231.000554-1.188.06435-1.6946.27051-2.147.31-.68036 1.0408-1.2302 1.7533-1.3192.6977-.08717 1.5177.29858 1.9663.92497.48905.68296.4525-.05307.4525 9.1122v8.1607l-.1364.61589c-.37407 1.6891-1.0788 3.0173-2.1909 4.1294-1.2373 1.2373-2.6799 1.9379-4.3524 2.1137-.68884.07242-10.269.06952-10.958-.0033z" style="fill:#ffffff;paint-order:markers fill stroke;stroke-linecap:square;stroke-linejoin:round;stroke-width:.25268;stroke:#ffffff"/><text id="text3691" x="160.45421" y="16.726496" style="fill:#000000;font-family:sans-serif;font-size:10.349px;line-height:1.25;stroke-width:.25872" xml:space="preserve"><tspan id="tspan3689" x="160.45421" y="16.726496" style="stroke-width:.25872">Age...</tspan></text></svg>
